<svg width="30" height="30" viewBox="0 0 30 30" fill="none" xmlns="http://www.w3.org/2000/svg">
<path d="M6.11899 10.1565C6.08745 10.1565 6.05621 10.1627 6.02707 10.1748C5.99792 10.1868 5.97144 10.2045 5.94913 10.2268C5.92683 10.2491 5.90913 10.2756 5.89706 10.3048C5.88499 10.3339 5.87878 10.3651 5.87878 10.3967V13.2492C5.87878 13.3814 5.98687 13.4895 6.11899 13.4895H9.42676C9.8689 13.4895 10.2929 13.3138 10.6056 13.0012C10.9182 12.6885 11.0939 12.2645 11.0939 11.8224C11.0939 11.3802 10.9182 10.9562 10.6056 10.6436C10.2929 10.3309 9.8689 10.1553 9.42676 10.1553L6.11899 10.1565ZM6.11899 15.6274C6.08745 15.6274 6.05621 15.6336 6.02707 15.6457C5.99792 15.6577 5.97144 15.6754 5.94913 15.6977C5.92683 15.72 5.90913 15.7465 5.89706 15.7757C5.88499 15.8048 5.87878 15.8361 5.87878 15.8676V19.3195C5.87878 19.4516 5.98687 19.5597 6.11899 19.5597H9.64055C10.162 19.5597 10.6621 19.3526 11.0308 18.9838C11.3996 18.6151 11.6067 18.115 11.6067 17.5935C11.6067 17.0721 11.3996 16.572 11.0308 16.2033C10.6621 15.8345 10.162 15.6274 9.64055 15.6274H6.11899ZM19.7812 15.7979C19.7534 15.7973 19.7269 15.786 19.7072 15.7663C19.6875 15.7466 19.6762 15.7201 19.6755 15.6922C19.6755 14.5224 20.6232 13.5747 21.7918 13.5747H22.2603C23.4289 13.5747 24.3766 14.5236 24.3766 15.6922C24.3766 15.7499 24.3285 15.7979 24.2709 15.7979H19.7812Z" fill="#677BDC"/>
<path fill-rule="evenodd" clip-rule="evenodd" d="M15.497 14.4381C15.4206 14.3414 15.3404 14.2477 15.2568 14.1571C15.7768 13.3368 16.0411 12.3795 16.0159 11.4102C16.0383 10.5754 15.8712 9.74625 15.527 8.98526C15.1911 8.22917 14.6559 7.57862 13.9788 7.10317L13.9656 7.09356C13.326 6.65528 12.6012 6.35654 11.8385 6.21678C11.1057 6.06515 10.3588 5.99267 9.61052 6.00059H2.80162C2.3238 6.00059 1.86555 6.1904 1.52768 6.52827C1.18981 6.86613 1 7.32438 1 7.8022V22.1635C1 22.6413 1.18981 23.0995 1.52768 23.4374C1.86555 23.7753 2.3238 23.9651 2.80162 23.9651H9.76786C10.5582 23.9651 11.3437 23.8654 12.1076 23.6672C12.8927 23.465 13.6365 23.1272 14.3055 22.6691L14.3139 22.6631C14.9811 22.1999 15.5353 21.5924 15.9354 20.8855C16.199 21.3922 16.5251 21.8639 16.9059 22.2896C17.552 22.9862 18.3472 23.5267 19.2311 23.8774L19.2528 23.8858C20.1608 24.2293 21.1249 24.4003 22.0957 24.3903C23.4926 24.4255 24.87 24.0573 26.0629 23.3297C26.0973 23.3081 26.1313 23.2853 26.165 23.2613C27.4214 22.3706 28.3272 21.0689 28.7257 19.5812C28.8034 19.2904 28.8072 18.9849 28.7365 18.6924C28.871 18.4606 28.9563 18.1963 28.9767 17.9129C29.0448 16.9612 28.9634 16.0047 28.7353 15.0783L28.7329 15.0711C28.5004 14.1418 28.0937 13.2651 27.5342 12.4876L27.5162 12.4612C26.9145 11.658 26.1378 11.0024 25.2449 10.5443C24.2845 10.0742 23.2274 9.8356 22.1582 9.84763C21.1812 9.84471 20.2131 10.0341 19.3092 10.4049L19.2972 10.4097C18.4479 10.7673 17.6779 11.2899 17.032 11.9471L17.0176 11.9603C16.3702 12.636 15.8682 13.4372 15.5426 14.3144L15.5414 14.3168L15.497 14.4381ZM12.2036 14.3541C13.013 14.5492 13.7235 15.0325 14.2022 15.7137C14.2359 15.7649 14.2683 15.817 14.2995 15.8698C14.6803 16.5112 14.8736 17.2487 14.8532 17.9957C14.8731 18.6499 14.7277 19.2984 14.4304 19.8814C14.1626 20.4015 13.7698 20.8483 13.2894 21.1822C12.792 21.5227 12.2387 21.7735 11.6548 21.9233C11.0388 22.0823 10.4052 22.163 9.76906 22.1635H2.80162V7.8022H9.62133C10.2507 7.79469 10.879 7.85591 11.495 7.98476C12.0151 8.07725 12.5099 8.28023 12.9459 8.5793C13.3567 8.86756 13.681 9.26151 13.8827 9.72032C14.123 10.25 14.2359 10.8289 14.213 11.4102C14.2374 12.0476 14.066 12.6772 13.7218 13.2143C13.3471 13.7187 12.785 14.1127 12.2036 14.3541ZM19.6191 18.0426C19.6145 17.957 19.6145 17.8712 19.6191 17.7855H27.1799C27.2364 17.0213 27.1708 16.253 26.9853 15.5095C26.8085 14.801 26.4987 14.1326 26.0725 13.5397C25.6425 12.9643 25.0877 12.4937 24.4498 12.1633C23.7391 11.8156 22.9565 11.6399 22.1654 11.6505C21.4217 11.6463 20.6845 11.7892 19.9962 12.0708C19.3657 12.3363 18.7952 12.723 18.3171 13.2094C17.8409 13.7063 17.4714 14.2953 17.2314 14.9402C16.9755 15.6361 16.8481 16.3727 16.8554 17.1141C16.8434 17.866 16.9671 18.6143 17.2205 19.3229C17.4367 19.9643 17.7778 20.5564 18.2258 21.0645C18.6895 21.5629 19.2588 21.9521 19.8929 22.2019C20.6006 22.4697 21.3524 22.6013 22.1089 22.5899C23.17 22.6225 24.2175 22.3453 25.1236 21.7923C26.0369 21.1449 26.6953 20.1988 26.9853 19.1175H24.4606C24.3254 19.4752 24.077 19.7789 23.7532 19.9823C23.3135 20.2723 22.7951 20.4195 22.2687 20.4039C21.9201 20.4399 21.5678 20.4039 21.2337 20.2981C20.8997 20.1923 20.5909 20.019 20.3265 19.7889C19.8975 19.3055 19.6473 18.6895 19.6179 18.0438" fill="#677BDC"/>
<path d="M24.9579 7.76176C24.9566 7.63518 24.9054 7.51421 24.8155 7.42514C24.7255 7.33608 24.604 7.28613 24.4774 7.28613H19.6431C19.5157 7.28613 19.3935 7.33675 19.3034 7.42685C19.2133 7.51695 19.1627 7.63915 19.1627 7.76656V9.05172C19.1627 9.11481 19.1751 9.17728 19.1993 9.23557C19.2234 9.29386 19.2588 9.34682 19.3034 9.39143C19.348 9.43604 19.401 9.47143 19.4593 9.49558C19.5175 9.51972 19.58 9.53215 19.6431 9.53215H24.4907C24.5542 9.53215 24.617 9.51957 24.6756 9.49512C24.7342 9.47068 24.7874 9.43486 24.8321 9.38974C24.8768 9.34461 24.912 9.29108 24.9359 9.23224C24.9598 9.1734 24.9717 9.11041 24.9711 9.04691L24.9579 7.76176Z" fill="#677BDC"/>
</svg>
