<svg width="40" height="40" viewBox="0 0 40 40" fill="none" xmlns="http://www.w3.org/2000/svg">
<rect width="40" height="40" rx="20" fill="#677BDC"/>
<path d="M31.36 16.1786L21.0743 11.1175C20.9163 11.0402 20.7422 11 20.5657 11C20.3892 11 20.2152 11.0402 20.0571 11.1175L13.2 14.4916L9.77143 16.1786L8.62857 16.7409C8.4401 16.8344 8.2816 16.9774 8.17065 17.1541C8.05971 17.3307 8.00064 17.5342 8 17.7419V24.49H10.2857V18.4392L12.5714 19.5639V23.8714C12.5714 26.1883 16.1371 29 20.5714 29C25.0057 29 28.5714 26.1995 28.5714 23.8714V19.5639L31.3714 18.1918C31.76 18.0006 32 17.6069 32 17.1908C32 16.7747 31.76 16.381 31.3714 16.1898L31.36 16.1786ZM14.2171 16.5047L20.56 13.3781L28.2857 17.1796L20.56 20.981L12.8343 17.1796L14.2171 16.4935V16.5047ZM26.2743 23.8714C26.2743 24.7262 23.8629 26.7506 20.56 26.7506C17.2571 26.7506 14.8457 24.7374 14.8457 23.8714V20.6886L20.0457 23.2529C20.2057 23.3316 20.3771 23.3766 20.56 23.3766C20.7429 23.3766 20.9143 23.3316 21.0743 23.2529L26.2743 20.6886V23.8714Z" fill="#1F1E24"/>
</svg>
