<svg width="30" height="30" viewBox="0 0 30 30" fill="none" xmlns="http://www.w3.org/2000/svg">
<path d="M3.8 26C3.03 26 2.37107 25.731 1.8232 25.1929C1.27533 24.6548 1.00093 24.0072 1 23.25V6.75C1 5.99375 1.2744 5.34658 1.8232 4.8085C2.372 4.27042 3.03093 4.00092 3.8 4H26.2C26.97 4 27.6294 4.2695 28.1782 4.8085C28.727 5.3475 29.0009 5.99467 29 6.75V23.25C29 24.0062 28.7261 24.6539 28.1782 25.1929C27.6303 25.7319 26.9709 26.0009 26.2 26H3.8ZM26.2 9.5L15.735 15.9281C15.6183 15.9969 15.4961 16.0487 15.3682 16.0835C15.2403 16.1183 15.1176 16.1353 15 16.1344C14.8824 16.1335 14.7601 16.1165 14.6332 16.0835C14.5063 16.0505 14.3835 15.9987 14.265 15.9281L3.8 9.5V23.25H26.2V9.5ZM15 13.625L26.2 6.75H3.8L15 13.625ZM3.8 9.84375V7.81562V7.85V7.8335V9.84375Z" fill="#677BDC"/>
</svg>
