<svg width="243" height="243" viewBox="0 0 243 243" fill="none" xmlns="http://www.w3.org/2000/svg">
<path d="M192.375 30.375C197.746 30.375 202.896 32.5085 206.694 36.3061C210.492 40.1037 212.625 45.2544 212.625 50.625V192.375C212.625 197.746 210.492 202.896 206.694 206.694C202.896 210.492 197.746 212.625 192.375 212.625H50.625C45.2544 212.625 40.1037 210.492 36.3061 206.694C32.5085 202.896 30.375 197.746 30.375 192.375V50.625C30.375 45.2544 32.5085 40.1037 36.3061 36.3061C40.1037 32.5085 45.2544 30.375 50.625 30.375H192.375ZM187.312 187.312V133.65C187.312 124.896 183.835 116.5 177.645 110.31C171.455 104.12 163.059 100.642 154.305 100.642C145.699 100.642 135.675 105.907 130.815 113.805V102.566H102.566V187.312H130.815V137.396C130.815 129.6 137.093 123.221 144.889 123.221C148.648 123.221 152.254 124.715 154.912 127.373C157.57 130.031 159.064 133.637 159.064 137.396V187.312H187.312ZM69.66 86.67C74.1713 86.67 78.4979 84.8779 81.6879 81.6879C84.8779 78.4979 86.67 74.1713 86.67 69.66C86.67 60.2438 79.0763 52.5488 69.66 52.5488C65.1218 52.5488 60.7695 54.3515 57.5605 57.5605C54.3515 60.7695 52.5488 65.1218 52.5488 69.66C52.5488 79.0763 60.2438 86.67 69.66 86.67ZM83.7338 187.312V102.566H55.6875V187.312H83.7338Z" fill="white"/>
</svg>
