<svg width="30" height="30" viewBox="0 0 30 30" fill="none" xmlns="http://www.w3.org/2000/svg">
<path d="M20.625 11.5C21.0374 11.5 21.4072 11.7533 21.5566 12.1377L25.9316 23.3877C26.1318 23.9024 25.877 24.4815 25.3623 24.6816C24.8476 24.8818 24.2685 24.627 24.0684 24.1123L23.3438 22.25H17.9062L17.1816 24.1123C16.9815 24.627 16.4024 24.8818 15.8877 24.6816C15.373 24.4815 15.1182 23.9024 15.3184 23.3877L19.6934 12.1377L19.7588 12C19.9354 11.6939 20.264 11.5 20.625 11.5ZM18.6836 20.25H22.5664L20.625 15.2578L18.6836 20.25ZM8.375 6.25C8.375 5.69772 8.82272 5.25 9.375 5.25C9.92728 5.25 10.375 5.69772 10.375 6.25V7.75H15C15.5523 7.75 16 8.19772 16 8.75C16 9.30228 15.5523 9.75 15 9.75H13.4355C13.2093 11.6339 12.3751 13.8487 11.0381 15.7168L13.4434 18.0293C13.8413 18.4121 13.8534 19.0453 13.4707 19.4434C13.0879 19.8413 12.4547 19.8534 12.0566 19.4707L9.74414 17.248C8.52218 18.4608 6.99208 19.4063 5.17773 19.7344C4.63435 19.8325 4.11387 19.4711 4.01562 18.9277C3.91751 18.3843 4.27887 17.8639 4.82227 17.7656C6.14053 17.5272 7.31266 16.8351 8.30273 15.8623L5.55664 13.2207C5.15872 12.8379 5.14654 12.2047 5.5293 11.8066C5.91212 11.4087 6.54532 11.3965 6.94336 11.7793L9.58008 14.3145C10.5809 12.8359 11.2064 11.1508 11.418 9.75H3.75C3.19772 9.75 2.75 9.30228 2.75 8.75C2.75 8.19772 3.19772 7.75 3.75 7.75H8.375V6.25Z" fill="#677BDC"/>
</svg>
