<svg width="30" height="30" viewBox="0 0 30 30" fill="none" xmlns="http://www.w3.org/2000/svg">
<path d="M8.76774 1C9.31063 1 9.68752 1.27824 9.81962 1.38199C9.995 1.51975 10.139 1.67735 10.2449 1.80538C10.4613 2.06717 10.6773 2.39616 10.8772 2.7293C11.2844 3.40815 11.7358 4.29133 12.1511 5.16801C12.569 6.05031 12.9661 6.9606 13.2613 7.70457C13.4082 8.07468 13.5348 8.41894 13.6282 8.70564C13.6746 8.84808 13.7194 8.99192 13.7524 9.12715C13.7781 9.23229 13.8258 9.44213 13.8258 9.67097C13.8258 10.3926 13.5565 11.0143 13.2726 11.4925C12.9876 11.9724 12.6221 12.416 12.2941 12.7909C11.9213 13.2169 11.6567 13.4921 11.3513 13.854C11.0691 14.1885 10.8862 14.4458 10.7831 14.6519C10.7428 14.7325 10.6639 14.8925 10.9863 15.4083C11.3326 15.9624 11.9217 16.562 12.6798 17.3202C12.9626 17.6029 13.5986 18.2351 14.3038 18.7108C14.6579 18.9496 14.9612 19.1013 15.1901 19.168C15.2922 19.1978 15.3505 19.1999 15.3763 19.2C15.5774 19.0945 15.8271 18.9177 16.146 18.6487C16.5079 18.3433 16.7831 18.0787 17.2091 17.7059C17.584 17.3779 18.0276 17.0124 18.5075 16.7274C18.9857 16.4435 19.6074 16.1742 20.329 16.1742C20.5579 16.1742 20.7677 16.2219 20.8728 16.2476C21.0081 16.2806 21.1519 16.3254 21.2944 16.3718C21.5811 16.4652 21.9253 16.5918 22.2954 16.7387C23.0394 17.0339 23.9497 17.431 24.832 17.8489C25.7087 18.2642 26.5918 18.7156 27.2707 19.1228C27.6038 19.3227 27.9328 19.5387 28.1946 19.7551C28.3226 19.861 28.4802 20.005 28.618 20.1804C28.7218 20.3125 29 20.6894 29 21.2323C29 24.8837 26.2908 27.5133 23.6766 28.3847C22.4911 28.7798 21.4294 29 20.2387 29C19.0715 29 17.855 28.787 16.3661 28.4148C14.8958 28.0472 13.4892 27.6524 11.9723 26.8435C10.4562 26.0349 8.89759 24.8508 7.02339 22.9766C5.14918 21.1024 3.96506 19.5438 3.15645 18.0277C2.34759 16.5108 1.9528 15.1042 1.58522 13.6339C1.21302 12.145 1 10.9285 1 9.76129C1 8.57059 1.22016 7.50886 1.61532 6.32339C2.48671 3.70921 5.11626 1 8.76774 1ZM8.2164 3.92984C6.34739 4.17999 4.88216 5.66805 4.35887 7.2379C4.03145 8.22017 3.89032 8.9649 3.89032 9.76129C3.89032 10.5811 4.03866 11.5326 4.38898 12.9339C4.74386 14.3534 5.07215 15.4767 5.70806 16.6691C6.34463 17.8624 7.32866 19.1948 9.06694 20.9331C10.8052 22.6713 12.1376 23.6554 13.3309 24.2919C14.5233 24.9279 15.6466 25.2561 17.0661 25.611C18.4674 25.9613 19.4189 26.1097 20.2387 26.1097C21.0351 26.1097 21.7798 25.9685 22.7621 25.6411C24.3324 25.1177 25.8188 23.6515 26.0683 21.7817C25.9877 21.729 25.8937 21.6687 25.7841 21.603C25.2212 21.2652 24.4329 20.8582 23.5938 20.4608C22.7603 20.066 21.9088 19.695 21.2304 19.4258C20.8894 19.2905 20.6057 19.1865 20.3987 19.1191C20.3452 19.1017 20.3008 19.0881 20.2651 19.0777C20.2105 19.0942 20.1188 19.1306 19.9828 19.2113C19.7403 19.3553 19.461 19.5771 19.1134 19.8812C18.8171 20.1405 18.3693 20.5537 18.0089 20.8578C17.6212 21.1849 17.1552 21.5443 16.639 21.8024C15.837 22.2031 15.0132 22.1259 14.3809 21.9417C13.75 21.7577 13.1656 21.4288 12.6874 21.1062C11.7269 20.4583 10.9172 19.6446 10.6363 19.3637C9.94933 18.6767 9.09325 17.8311 8.53629 16.9401C7.95567 16.0111 7.51583 14.7253 8.19758 13.361C8.4557 12.8448 8.81514 12.3788 9.1422 11.9911C9.44631 11.6307 9.85954 11.1829 10.1188 10.8866C10.4229 10.539 10.6447 10.2597 10.7887 10.0172C10.87 9.88021 10.9041 9.78747 10.9204 9.73306C10.9101 9.69769 10.898 9.65373 10.8809 9.60134C10.8135 9.39426 10.7095 9.11055 10.5742 8.76962C10.305 8.09121 9.93404 7.23966 9.53925 6.40618C9.14179 5.56711 8.73479 4.77877 8.39704 4.21586C8.33071 4.10531 8.26949 4.01085 8.2164 3.92984Z" fill="#677BDC"/>
</svg>
