<svg width="40" height="40" viewBox="0 0 40 40" fill="none" xmlns="http://www.w3.org/2000/svg">
<rect width="40" height="40" rx="20" fill="#677BDC"/>
<path d="M29.6 13.3421C30.296 13.3421 30.86 13.5842 31.304 14.0563C31.76 14.5526 32 15.0974 32 15.7632V29.0789C32 29.7447 31.76 30.2895 31.304 30.7858C30.86 31.2579 30.296 31.5 29.6 31.5H10.4C9.704 31.5 9.14 31.2579 8.696 30.7858C8.24 30.2895 8 29.7447 8 29.0789V15.7632C8 15.0974 8.24 14.5526 8.696 14.0563C9.14 13.5842 9.704 13.3421 10.4 13.3421H15.2V10.9211C15.2 10.2189 15.44 9.65 15.896 9.20211C16.34 8.74211 16.904 8.5 17.6 8.5H22.4C23.096 8.5 23.66 8.74211 24.104 9.20211C24.56 9.65 24.8 10.2189 24.8 10.9211V13.3421H29.6ZM10.4 15.7632V29.0789H29.6V15.7632H10.4ZM22.4 13.3421V10.9211H17.6V13.3421H22.4Z" fill="#1F1E24"/>
</svg>
