<svg width="40" height="40" viewBox="0 0 40 40" fill="none" xmlns="http://www.w3.org/2000/svg">
<path fill-rule="evenodd" clip-rule="evenodd" d="M25.2785 0.833313C26.8358 0.833216 28.3562 1.30738 29.6374 2.1927C30.9186 3.07802 31.8998 4.33251 32.4505 5.78923C33.0011 7.24596 33.0951 8.83583 32.7199 10.3473C32.3446 11.8587 31.518 13.2201 30.3501 14.2501C31.7786 15.5071 32.6887 17.2505 32.9034 19.1412C33.118 21.0319 32.6219 22.9349 31.5114 24.4801C30.4009 26.0254 28.7555 27.1024 26.8951 27.5019C25.0346 27.9014 23.092 27.5947 21.4451 26.6415V31.5003C21.4451 32.7814 21.124 34.042 20.5112 35.1671C19.8984 36.2921 19.0135 37.2457 17.9373 37.9406C16.8611 38.6355 15.6279 39.0497 14.3503 39.1453C13.0728 39.2409 11.7917 39.0148 10.6241 38.4877C9.45644 37.9606 8.43949 37.1494 7.66615 36.128C6.8928 35.1067 6.38771 33.9079 6.19703 32.6411C6.00634 31.3742 6.13614 30.0798 6.57457 28.8761C7.013 27.6724 7.74607 26.5977 8.70682 25.7503C7.89111 25.0307 7.23784 24.1459 6.79039 23.1545C6.34294 22.1631 6.11156 21.0879 6.11162 20.0002C6.11156 18.9125 6.34294 17.8372 6.79039 16.8459C7.23784 15.8545 7.89111 14.9696 8.70682 14.2501C7.53883 13.2201 6.71222 11.8587 6.337 10.3473C5.96179 8.83583 6.05575 7.24596 6.60639 5.78923C7.15703 4.33251 8.13824 3.07802 9.41943 2.1927C10.7006 1.30738 12.2211 0.833216 13.7784 0.833313H25.2785ZM17.6117 27.6669H13.7784C13.0202 27.6669 12.2791 27.8918 11.6487 28.313C11.0183 28.7342 10.5269 29.3329 10.2368 30.0333C9.94666 30.7338 9.87074 31.5046 10.0187 32.2482C10.1666 32.9918 10.5317 33.6748 11.0678 34.2109C11.6039 34.747 12.2869 35.1121 13.0305 35.26C13.7741 35.4079 14.5449 35.332 15.2453 35.0419C15.9458 34.7518 16.5445 34.2604 16.9657 33.63C17.3869 32.9996 17.6117 32.2585 17.6117 31.5003V27.6669ZM17.6117 16.1668H13.7784C12.7617 16.1668 11.7867 16.5707 11.0678 17.2896C10.3489 18.0085 9.945 18.9835 9.945 20.0002C9.945 21.0169 10.3489 21.9919 11.0678 22.7108C11.7867 23.4297 12.7617 23.8336 13.7784 23.8336H17.6117V16.1668ZM25.2785 16.1668C24.2618 16.1668 23.2868 16.5707 22.5679 17.2896C21.849 18.0085 21.4451 18.9835 21.4451 20.0002C21.4451 21.0169 21.849 21.9919 22.5679 22.7108C23.2868 23.4297 24.2618 23.8336 25.2785 23.8336C26.2952 23.8336 27.2702 23.4297 27.9891 22.7108C28.708 21.9919 29.1119 21.0169 29.1119 20.0002C29.1119 18.9835 28.708 18.0085 27.9891 17.2896C27.2702 16.5707 26.2952 16.1668 25.2785 16.1668ZM25.2785 4.66669H21.4451V12.3334H25.2785C26.2732 12.3379 27.2307 11.9555 27.9487 11.267C28.6667 10.5786 29.089 9.63797 29.1263 8.64393C29.1637 7.64989 28.8131 6.68027 28.1488 5.93991C27.4844 5.19955 26.5583 4.74643 25.566 4.67627L25.2785 4.66669ZM17.6117 4.66669H13.7784C12.7617 4.66669 11.7867 5.07056 11.0678 5.78946C10.3489 6.50836 9.945 7.48339 9.945 8.50006C9.945 9.51674 10.3489 10.4918 11.0678 11.2107C11.7867 11.9296 12.7617 12.3334 13.7784 12.3334H17.6117V4.66669Z" fill="#39396B"/>
</svg>
