<svg width="203" height="203" viewBox="0 0 203 203" fill="none" xmlns="http://www.w3.org/2000/svg">
<path d="M169.167 33.8333C173.435 33.832 177.545 35.4439 180.675 38.3458C183.804 41.2478 185.721 45.2254 186.041 49.4812L186.083 50.75V152.25C186.085 156.518 184.473 160.629 181.571 163.758C178.669 166.887 174.691 168.804 170.435 169.124L169.167 169.167H33.8333C29.5655 169.168 25.4548 167.556 22.3254 164.654C19.1959 161.752 17.279 157.775 16.959 153.519L16.9167 152.25V50.75C16.9153 46.4821 18.5272 42.3715 21.4292 39.242C24.3311 36.1126 28.3087 34.1957 32.5646 33.8756L33.8333 33.8333H169.167ZM169.167 62.7101L110.466 121.411C108.087 123.787 104.862 125.121 101.5 125.121C98.1378 125.121 94.9131 123.787 92.5342 121.411L33.8333 62.7101V152.25H169.167V62.7101ZM157.207 50.75H45.7934L101.5 106.457L157.207 50.75Z" fill="white"/>
</svg>
