<svg width="203" height="203" viewBox="0 0 203 203" fill="none" xmlns="http://www.w3.org/2000/svg">
<path d="M101.508 76.125C94.7786 76.125 88.3244 78.7984 83.5656 83.5572C78.8069 88.3159 76.1335 94.7701 76.1335 101.5C76.1335 108.23 78.8069 114.684 83.5656 119.443C88.3244 124.202 94.7786 126.875 101.508 126.875C108.238 126.875 114.693 124.202 119.451 119.443C124.21 114.684 126.883 108.23 126.883 101.5C126.883 94.7701 124.21 88.3159 119.451 83.5572C114.693 78.7984 108.238 76.125 101.508 76.125ZM101.508 59.2083C112.725 59.2083 123.482 63.664 131.413 71.5953C139.344 79.5265 143.8 90.2835 143.8 101.5C143.8 112.716 139.344 123.473 131.413 131.405C123.482 139.336 112.725 143.792 101.508 143.792C90.292 143.792 79.535 139.336 71.6037 131.405C63.6725 123.473 59.2168 112.716 59.2168 101.5C59.2168 90.2835 63.6725 79.5265 71.6037 71.5953C79.535 63.664 90.292 59.2083 101.508 59.2083ZM156.488 57.0937C156.488 59.8979 155.374 62.5871 153.391 64.5699C151.408 66.5527 148.719 67.6667 145.915 67.6667C143.111 67.6667 140.421 66.5527 138.439 64.5699C136.456 62.5871 135.342 59.8979 135.342 57.0937C135.342 54.2896 136.456 51.6004 138.439 49.6176C140.421 47.6348 143.111 46.5208 145.915 46.5208C148.719 46.5208 151.408 47.6348 153.391 49.6176C155.374 51.6004 156.488 54.2896 156.488 57.0937ZM101.508 33.8333C80.5826 33.8333 77.1654 33.8925 67.4298 34.3239C60.7985 34.6369 56.3494 35.525 52.2218 37.1321C48.7693 38.404 45.6473 40.4362 43.0868 43.0783C40.4416 45.6379 38.4064 48.7601 37.1321 52.2133C35.525 56.3579 34.6369 60.7985 34.3324 67.4214C33.8925 76.7594 33.8333 80.0243 33.8333 101.5C33.8333 122.434 33.8925 125.843 34.3239 135.579C34.6369 142.201 35.525 146.659 37.1236 150.778C38.5615 154.458 40.2532 157.105 43.0614 159.913C45.9118 162.755 48.5593 164.455 52.1964 165.859C56.3748 167.475 60.8239 168.372 67.4214 168.676C76.7594 169.116 80.0243 169.167 101.5 169.167C122.434 169.167 125.843 169.107 135.579 168.676C142.193 168.363 146.642 167.475 150.778 165.876C154.231 164.604 157.353 162.572 159.913 159.93C162.764 157.088 164.464 154.441 165.868 150.795C167.475 146.634 168.372 142.185 168.676 135.57C169.116 126.241 169.167 122.967 169.167 101.5C169.167 80.5741 169.107 77.1569 168.676 67.4214C168.363 60.807 167.467 56.341 165.868 52.2133C164.596 48.7609 162.564 45.6388 159.922 43.0783C157.362 40.4331 154.24 38.398 150.787 37.1236C146.642 35.5165 142.193 34.6284 135.579 34.3239C126.249 33.8841 122.984 33.8333 101.5 33.8333M101.5 16.9167C124.481 16.9167 127.349 17.0012 136.374 17.4242C145.373 17.8471 151.514 19.2596 156.902 21.3573C162.485 23.5057 167.187 26.4154 171.89 31.1097C176.193 35.3366 179.521 40.4517 181.643 46.0979C183.732 51.4859 185.153 57.6266 185.576 66.6347C185.973 75.6513 186.083 78.5187 186.083 101.5C186.083 124.481 185.999 127.349 185.576 136.365C185.153 145.382 183.732 151.506 181.643 156.902C179.521 162.548 176.193 167.663 171.89 171.89C167.663 176.193 162.548 179.521 156.902 181.643C151.514 183.732 145.373 185.153 136.374 185.576C127.349 185.973 124.481 186.083 101.5 186.083C78.5187 186.083 75.6513 185.999 66.6263 185.576C57.6266 185.153 51.4943 183.732 46.0979 181.643C40.4518 179.521 35.3367 176.193 31.1098 171.89C26.8071 167.663 23.4788 162.548 21.3573 156.902C19.2596 151.514 17.8471 145.373 17.4242 136.365C17.0182 127.349 16.9167 124.481 16.9167 101.5C16.9167 78.5187 17.0013 75.6513 17.4242 66.6347C17.8471 57.6182 19.2596 51.4943 21.3573 46.0979C23.4788 40.4517 26.8071 35.3366 31.1098 31.1097C35.3367 26.807 40.4518 23.4788 46.0979 21.3573C51.4859 19.2596 57.6182 17.8471 66.6263 17.4242C75.6598 17.0266 78.5272 16.9167 101.508 16.9167" fill="white"/>
</svg>
