<svg width="30" height="30" viewBox="0 0 30 30" fill="none" xmlns="http://www.w3.org/2000/svg">
<path d="M17.75 12.5C17.75 10.9812 16.5188 9.75 15 9.75C13.4812 9.75 12.25 10.9812 12.25 12.5C12.25 14.0188 13.4812 15.25 15 15.25C16.5188 15.25 17.75 14.0188 17.75 12.5ZM19.75 12.5C19.75 15.1234 17.6234 17.25 15 17.25C12.3766 17.25 10.25 15.1234 10.25 12.5C10.25 9.87665 12.3766 7.75 15 7.75C17.6234 7.75 19.75 9.87665 19.75 12.5Z" fill="#677BDC"/>
<path d="M24 12.5C24 10.1131 23.0521 7.82357 21.3643 6.13574C19.6764 4.44792 17.3869 3.5 15 3.5C12.6131 3.5 10.3236 4.44791 8.63574 6.13574C6.94791 7.82357 6 10.1131 6 12.5C6 13.6117 6.11838 14.4767 6.37207 15.2422C6.62222 15.9968 7.02026 16.7031 7.63965 17.4795L15 25.9717L22.3594 17.4795C22.979 16.703 23.3777 15.997 23.6279 15.2422C23.8816 14.4767 24 13.6117 24 12.5ZM26 12.5C26 13.7531 25.867 14.8445 25.5264 15.8721C25.1843 16.9039 24.6491 17.8218 23.9053 18.75C23.8973 18.76 23.8893 18.7706 23.8809 18.7803L15.7559 28.1553C15.5659 28.3744 15.29 28.5 15 28.5C14.71 28.5 14.4341 28.3744 14.2441 28.1553L6.11914 18.7803C6.11074 18.7706 6.10274 18.76 6.09473 18.75C5.35087 17.8218 4.8157 16.9039 4.47363 15.8721C4.13302 14.8445 4 13.7531 4 12.5C4 9.58262 5.15878 6.78458 7.22168 4.72168C9.28458 2.65878 12.0826 1.5 15 1.5C17.9174 1.5 20.7154 2.65878 22.7783 4.72168C24.8412 6.78458 26 9.58262 26 12.5Z" fill="#677BDC"/>
</svg>
