<svg width="30" height="30" viewBox="0 0 30 30" fill="none" xmlns="http://www.w3.org/2000/svg">
<path d="M22.6047 17.1752C20.4045 17.1752 18.9522 15.5107 18.5454 14.8689C19.0659 10.7911 20.5926 9.50315 22.6047 9.50315C24.5951 9.50315 26.1436 11.0607 26.1436 13.3413C26.1436 15.6219 24.5951 17.1795 22.6047 17.1795V17.1752ZM22.6047 7C19.0222 7 17.0144 9.28492 16.437 11.6383C15.7852 10.4402 15.304 8.83564 14.9278 7.34659H9.9761V13.3798C9.9761 15.5663 8.95688 17.188 6.96657 17.188C4.97625 17.188 3.83456 15.5706 3.83456 13.3798L3.85643 7.34659H1V13.3798C1 15.1384 1.58178 16.7345 2.64474 17.8769C3.73832 19.0536 5.23434 19.6655 6.96657 19.6655C10.4135 19.6655 12.8194 17.081 12.8194 13.3798V9.32343C13.1781 10.6584 14.0355 13.2215 15.6758 15.4679L14.1448 24H17.0494L18.0598 17.9539C18.3923 18.2235 18.7466 18.4674 19.1184 18.6813C20.0895 19.2804 21.205 19.6184 22.351 19.6569C22.351 19.6569 22.526 19.6655 22.6179 19.6655C26.1698 19.6655 29 16.9741 29 13.3413C29 9.70853 26.1654 7.00428 22.6135 7.00428L22.6047 7Z" fill="#677BDC"/>
</svg>
