<svg width="40" height="40" viewBox="0 0 40 40" fill="none" xmlns="http://www.w3.org/2000/svg">
<g clip-path="url(#clip0_24_397)">
<path d="M2.646 20.5C2.646 27.376 6.646 33.3 12.43 36.116L4.154 13.438C3.16017 15.6597 2.64631 18.0661 2.646 20.5ZM20 37.854C21.9648 37.8504 23.9151 37.5178 25.77 36.87L25.646 36.638L20.306 22.024L15.106 37.146C16.646 37.606 18.292 37.854 20 37.854ZM22.384 12.36L28.662 31.02L30.4 25.236C31.14 22.836 31.708 21.114 31.708 19.622C31.708 17.468 30.938 15.99 30.292 14.852C29.4 13.406 28.584 12.192 28.584 10.774C28.584 9.174 29.784 7.698 31.508 7.698H31.722C28.524 4.76405 24.34 3.13929 20 3.146C17.1259 3.14572 14.2968 3.85986 11.7671 5.22418C9.23746 6.5885 7.08661 8.56022 5.508 10.962L6.616 10.992C8.43 10.992 11.23 10.762 11.23 10.762C12.184 10.716 12.292 12.084 11.354 12.192C11.354 12.192 10.414 12.316 9.354 12.362L15.694 31.162L19.494 19.778L16.784 12.362C16.178 12.3279 15.5731 12.2765 14.97 12.208C14.03 12.148 14.138 10.716 15.076 10.762C15.076 10.762 17.938 10.992 19.646 10.992C21.462 10.992 24.262 10.762 24.262 10.762C25.2 10.716 25.322 12.084 24.384 12.192C24.384 12.192 23.446 12.3 22.384 12.362M28.724 35.5C32.6343 33.227 35.5027 29.5171 36.7179 25.1604C37.9331 20.8038 37.3993 16.1448 35.23 12.176C35.5043 14.901 35.0917 17.6514 34.03 20.176L28.724 35.5ZM20 40.5C14.6957 40.5 9.60859 38.3929 5.85786 34.6421C2.10714 30.8914 0 25.8043 0 20.5C0 15.1957 2.10714 10.1086 5.85786 6.35786C9.60859 2.60714 14.6957 0.5 20 0.5C25.3043 0.5 30.3914 2.60714 34.1421 6.35786C37.8929 10.1086 40 15.1957 40 20.5C40 25.8043 37.8929 30.8914 34.1421 34.6421C30.3914 38.3929 25.3043 40.5 20 40.5Z" fill="#39396B"/>
</g>
<defs>
<clipPath id="clip0_24_397">
<rect width="40" height="40" fill="white"/>
</clipPath>
</defs>
</svg>
